<svg viewBox="0 1 145 117" xmlns="http://www.w3.org/2000/svg">
  <path fill="rgba(23, 23, 23, 0.5)" stroke-miterlimit="10" stroke-width="2" d="M130.648 59.727c0 13.227-4.429 25.657-11.811 35.463-4.089 5.36-8.972 10.035-14.65 13.684-9.086 6.044-20.101 9.465-31.799 9.465-32.139.114-58.26-26.113-58.26-58.612C14.129 27.34 40.136 1 72.389 1c11.698 0 22.6 3.421 31.799 9.465 5.678 3.649 10.561 8.324 14.65 13.684 7.382 9.92 11.811 22.236 11.811 35.578z" />
  <path stroke="currentColor" stroke-linecap="round" stroke-linejoin="round" stroke-miterlimit="10" stroke-width="2" d="M1 103.569h137.853" />
  <path fill="#2e333d" stroke="currentColor" stroke-linejoin="round" stroke-miterlimit="10" stroke-width="1.591" d="M97.825 51.054v52.515H23.371c-2.937 0-5.14-2.36-5.14-5.163V51.054z" />
  <path fill="#1f2229" stroke="currentColor" stroke-miterlimit="10" stroke-width="2" d="M127.366 51.054v47.352c0 2.95-2.449 5.163-5.357 5.163H97.826V51.054z" />
  <path fill="#1f2229" stroke="currentColor" stroke-miterlimit="10" stroke-width="2" d="m46.951 51.054 15.656-24.617h80.349l-16.099 24.617z" />
  <path fill="#2e333d" stroke="currentColor" stroke-linejoin="round" stroke-miterlimit="10" stroke-width="1.591" d="M126.747 51.054H97.826l14.685 22.258c1.049 1.474 2.697 2.358 4.346 2.358h22.477c1.499 0 2.548-1.769 1.648-2.948zM97.825 51.054 82.06 26.437H1l16.36 24.617z" />
  <path fill="currentColor" d="M57.954 81.414H26.922c-.725 0-1.305-.547-1.305-1.23s.58-1.231 1.305-1.231h31.032c.725 0 1.305.547 1.305 1.23-.145.684-.58 1.231-1.305 1.231zM57.954 87.158H26.922c-.725 0-1.305-.365-1.305-.82 0-.456.58-.82 1.305-.82h31.032c.725 0 1.305.364 1.305.82-.145.456-.58.82-1.305.82zM41.523 93.723h-14.58c-.737 0-1.326-.365-1.326-.82s.589-.822 1.325-.822h14.58c.737 0 1.326.365 1.326.821-.147.456-.736.82-1.325.82z" />
</svg>
