<svg xmlns="http://www.w3.org/2000/svg" fill="none" viewBox="0 0 159 124">
    <path fill="rgba(23, 23, 23, 0.5)" d="M79.795 121.738c33.46 0 60.543-26.832 60.543-59.938S113.255 1.958 79.795 1.958c-33.363 0-60.544 26.832-60.544 59.938s27.181 59.842 60.544 59.842Z"/>
    <path fill="#1F2229" stroke="currentColor" stroke-miterlimit="10" stroke-width="2" d="M109.625 121.835c-9.224.289-20.312 0-28.162-.097-7.752.29-18.938.386-28.162.097 9.125-5.116 12.364-14.671 12.756-20.945h30.615c.687 6.177 3.925 15.829 12.953 20.945Z"/>
    <path fill="#1f2229" stroke="currentColor" stroke-miterlimit="10" stroke-width="2" d="M139.258 20.972v78.856c0 2.027-1.57 3.475-3.336 3.475H27.592c-1.864 0-3.336-1.544-3.336-3.475V20.972c0-1.834 1.57-3.474 3.336-3.474h108.134c2.06.096 3.532 1.64 3.532 3.474Z"/>
    <path fill="rgba(23, 23, 23, 0.5)" stroke="currentColor" stroke-miterlimit="10" stroke-width="2" d="M139.258 20.972v67.853H24.256V20.972c0-1.834 1.57-3.474 3.336-3.474h108.134c2.06.096 3.532 1.64 3.532 3.474Z"/>
    <path fill="rgba(23, 23, 23, 0.8)" d="M32.558 26.636h33.136v24.866H32.558zM73.583 26.636h55.226v10.102H73.583zM73.583 56.942h55.226v10.102H73.583zM73.583 40.623h55.226v4.662H73.583zM73.583 70.929h55.226v4.662H73.583zM32.558 56.942h33.136v24.866H32.558z"/>
    <path fill="currentColor" d="M81.561 98.573c1.57 0 2.846-1.158 2.846-2.799 0-1.544-1.178-2.799-2.846-2.799-1.57 0-2.846 1.159-2.846 2.8 0 1.544 1.178 2.798 2.846 2.798Z"/>
    <path stroke="currentColor" stroke-linecap="round" stroke-linejoin="round" stroke-miterlimit="10" stroke-width="2" d="M1.981 122.028H157.02"/>
    <path fill="rgba(23, 23, 23, 0.5)" d="M11.99 54.657c2.257 0 4.023-1.737 4.023-3.957 0-2.22-1.766-3.957-4.023-3.957-2.257 0-4.023 1.737-4.023 3.957 0 2.22 1.864 3.957 4.023 3.957ZM7.967 41.82c1.472 0 2.748-1.254 2.748-2.702s-1.276-2.703-2.748-2.703c-1.472 0-2.747 1.255-2.747 2.703 0 1.544 1.275 2.702 2.747 2.702ZM151.916 64.599c2.846 0 5.103-2.22 5.103-5.02 0-2.798-2.257-5.018-5.103-5.018-2.845 0-5.102 2.22-5.102 5.019s2.257 5.019 5.102 5.019Z"/>
    <path fill="rgba(23, 23, 23, 0.3)" stroke="currentColor" stroke-linejoin="round" stroke-miterlimit="10" stroke-width="2" d="M106.719 54.222c0 3.36-.569 6.438-1.848 9.377-2.841 7.278-8.951 12.876-16.483 15.396-2.557.84-5.257 1.26-8.099 1.26-14.636 0-26.43-11.617-26.43-26.033 0-14.415 11.794-26.032 26.43-26.032s26.43 11.757 26.43 26.032Z"/>
    <path fill="currentColor" d="M87.108 51.617a1.062 1.062 0 0 1-.486-.877v-4.584c0-2.812-2.44-5.156-5.37-5.156-1.464 0-2.766.625-3.905 1.563-.976.937-1.627 2.187-1.627 3.75v4.61c0 .34-.176.655-.456.85a10.92 10.92 0 0 0-3.124 3.29 9.836 9.836 0 0 0-1.302 4.844c0 5.47 4.556 9.845 10.251 9.845 5.696 0 10.252-4.376 10.252-9.845.154-3.539-1.577-6.521-4.233-8.29Zm-4.248 8.892c-.267.237-.469.556-.469.914V63.5c0 .313-.325.625-.65.625H80.6c-.325 0-.65-.312-.65-.625v-2.027c0-.384-.235-.721-.523-.977-.622-.555-.91-1.432-.78-2.309.163-.937.977-1.718 1.953-1.875 1.627-.312 3.092.938 3.092 2.344 0 .74-.304 1.383-.833 1.852Zm1.159-11.66c0 .678-.66 1.15-1.327 1.032a9.02 9.02 0 0 0-1.603-.13c-.533 0-1.066.046-1.6.14-.667.116-1.329-.364-1.329-1.042v-2.536c0-.782.326-1.563.814-2.032.488-.468 1.302-.78 2.115-.78 1.628 0 2.93 1.25 2.93 2.812v2.536Z"/>
</svg>
