<svg viewBox="0 0 131 130" xmlns="http://www.w3.org/2000/svg">
  <path fill="rgba(23, 23, 23, 0.5)" d="m118.535 57.043 1.248-.555a.434.434 0 0 0 0-.832l-1.248-.555a7.031 7.031 0 0 1-3.466-3.468l-.554-1.249a.433.433 0 0 0-.832 0l-.555 1.249a7.03 7.03 0 0 1-3.465 3.468l-1.248.555a.433.433 0 0 0 0 .832l1.248.555a7.03 7.03 0 0 1 3.465 3.468l.555 1.249a.433.433 0 0 0 .832 0l.554-1.249c.555-1.526 1.802-2.774 3.466-3.468Zm-9.088 20.012.832-.416c.277-.139.277-.417 0-.555l-.832-.278a3.962 3.962 0 0 1-2.357-2.358l-.416-.833c-.138-.277-.415-.277-.554 0l-.277.833c-.555 1.11-1.387 1.942-2.357 2.358l-.97.416c-.139 0-.139.417 0 .417l.831.416c1.109.416 1.941 1.248 2.496 2.358l.416.832c.138.278.415.278.554 0l.277-.832a3.962 3.962 0 0 1 2.357-2.358ZM28.734 91.942l1.247-.555a.433.433 0 0 0 0-.832L28.734 90a7.033 7.033 0 0 1-3.466-3.469l-.555-1.248a.433.433 0 0 0-.831 0l-.555 1.248A7.033 7.033 0 0 1 19.861 90l-1.247.555a.433.433 0 0 0 0 .832l1.247.555a7.031 7.031 0 0 1 3.466 3.468l.555 1.249a.433.433 0 0 0 .831 0l.555-1.249c.554-1.526 1.802-2.774 3.466-3.468Zm.502-62.002.832-.416c.277-.138.277-.416 0-.555l-.832-.277a3.963 3.963 0 0 1-2.357-2.359l-.415-.832c-.139-.277-.416-.277-.555 0l-.277.832c-.555 1.11-1.386 1.943-2.357 2.359l-.97.416c-.139 0-.139.416 0 .416l.831.416c1.11.417 1.941 1.249 2.496 2.359l.416.832c.138.278.416.278.554 0l.277-.832a3.966 3.966 0 0 1 2.357-2.359Zm10.674-9.791.693-.277c.139-.139.139-.277 0-.416l-.693-.278c-.832-.277-1.386-.971-1.802-1.803l-.277-.694c-.139-.138-.278-.138-.416 0l-.278.694c-.277.832-.97 1.387-1.802 1.803l-.416.278c-.277.139-.277.416 0 .416l.694.277c.831.278 1.386.972 1.802 1.804l.277.694c.139.138.277.138.416 0l.277-.694c.139-.832.832-1.526 1.525-1.804Zm-6.774 101.076c-.306 0-.612-.102-.918-.307-.816-.51-1.122-1.632-.612-2.449.51-.816 1.53-1.122 2.345-.714 0 0 .102 0 .102.102.816.51 1.122 1.633.612 2.449-.408.612-.917.919-1.529.919Zm14.989 6.428c-.204 0-.306 0-.51-.102-1.937-.612-3.976-1.224-5.914-1.939-.917-.408-1.325-1.428-1.019-2.347.407-.918 1.427-1.326 2.345-1.02a51.492 51.492 0 0 0 5.608 1.837c.918.306 1.53 1.224 1.224 2.245-.306.816-1.02 1.326-1.734 1.326ZM65.358 130c-1.734 0-3.569-.102-5.405-.204-1.019-.102-1.733-.919-1.631-1.939.102-1.02.917-1.735 1.937-1.633 1.632.102 3.365.204 5.099.204 33.853 0 61.384-27.551 61.384-61.428 0-1.021.816-1.837 1.835-1.837 1.02 0 1.836.816 1.836 1.837-.102 35.816-29.265 65-65.055 65Zm42.724-109.796c-.408 0-.918-.204-1.224-.51a1.89 1.89 0 0 1-.102-2.551c.714-.715 1.734-.817 2.448-.102l.102.102a1.789 1.789 0 0 1 0 2.551c-.306.408-.714.51-1.224.51Zm-7.954-6.224c-.305 0-.713-.102-1.019-.306a71.945 71.945 0 0 0-8.158-4.592c-.917-.408-1.325-1.429-.917-2.347.408-.919 1.427-1.327 2.345-.919a60.207 60.207 0 0 1 8.667 4.796c.816.511 1.02 1.633.51 2.449-.306.715-.816.919-1.428.919Z"/>
  <path fill="rgba(23, 23, 23, 0.5)" d="M2.24 66.837A1.829 1.829 0 0 1 .404 65c0-35.816 29.163-65 64.954-65 5.404 0 10.808.714 15.906 1.939.918.204 1.53 1.224 1.326 2.143-.204.918-1.224 1.53-2.141 1.326a62.353 62.353 0 0 0-15.091-1.837C31.504 3.571 3.973 31.122 3.973 65c0 1.02-.816 1.837-1.733 1.837Z"/>
  <path fill="#1d1d1d" stroke="currentColor" stroke-width="2" stroke-miterlimit="10" d="M74.477 34.609a4.02 4.02 0 0 1-4.02 4.019H58.145a4.019 4.019 0 0 1-4.019-4.019c0-3.719 3.113-6.733 6.828-6.733h6.694c3.816 0 6.829 3.115 6.829 6.733Zm16.889 13.388a3.839 3.839 0 0 1-5.199-5.648l2.186-2.012c.703-.704 1.807-.603 2.41.1l2.912 3.115c.703.704.602 1.809-.101 2.412l-2.208 2.033Zm-54.932 0a3.839 3.839 0 1 0 5.2-5.648l-2.186-2.012c-.703-.704-1.808-.603-2.41.1l-2.912 3.115c-.703.704-.603 1.809.1 2.412l2.208 2.033Z"/>
  <path fill="#1d1d1d" stroke="currentColor" stroke-width="2" stroke-miterlimit="10" d="M63.95 97.718c17.248 0 31.23-13.858 31.23-30.952S81.199 35.814 63.95 35.814 32.72 49.672 32.72 66.767s13.982 30.952 31.23 30.952Z"/>
  <path fill="#1d1d1d" stroke="currentColor" stroke-width="2" stroke-miterlimit="10" d="M63.95 93.095c14.642 0 26.511-11.788 26.511-26.329S78.591 40.437 63.95 40.437c-14.642 0-26.511 11.788-26.511 26.33 0 14.54 11.87 26.328 26.511 26.328Z"/>
  <path fill="currentColor" opacity=".05" d="M85.24 66.766c0 .804-.101 1.508-.101 2.211-.1 1.608-1.908 2.513-3.414 1.81l-11.147-5.83a2.344 2.344 0 0 1-1.306-2.11V49.683c0-1.709 1.708-2.915 3.314-2.211 7.431 3.316 12.653 10.652 12.653 19.294Z"/>
  <path fill="currentColor" d="M65.457 65.66h-2.913l.1-13.063c0-.804.704-1.407 1.407-1.407.803 0 1.406.703 1.406 1.407V65.66Z"/>
  <path fill="currentColor" d="M62.042 67.47c0-1.005.803-1.91 1.908-1.91s1.808.805 1.808 1.81c0 1.004-.804 1.909-1.908 1.909-1.005 0-1.808-.704-1.808-1.81Z"/>
  <path fill="currentColor" d="M82.628 77.117c-.1.1-.401.1-.502.1L63.65 67.973c-.2-.1-.301-.402-.2-.603a.483.483 0 0 1 .602-.2l18.477 9.245c.2.1.301.402.2.603.101.1 0 .1-.1.1Z"/>
  <path fill="currentColor" stroke="#1d1d1d" stroke-width="2" stroke-miterlimit="10" d="M60.637 67.47c0-1.709 1.406-3.116 3.213-3.216 1.808-.1 3.113 1.407 3.113 3.115 0 1.708-1.406 3.115-3.213 3.216-1.707.2-3.113-1.307-3.113-3.115Z"/>
  <path fill="currentColor" d="M64.754 85.156h-1.708c-.301 0-.602.201-.602.603v4.221c0 .301.201.603.602.603h1.708c.301 0 .602-.201.602-.603v-4.221c-.1-.301-.301-.603-.602-.603Zm0-42.709h-1.708c-.301 0-.602.201-.602.603v4.22c0 .302.201.603.602.603h1.708c.301 0 .602-.201.602-.603v-4.22c-.1-.302-.301-.603-.602-.603Zm-19.783 22.41h-4.218c-.301 0-.603.201-.603.603v1.708c0 .302.201.603.603.603h4.218c.301 0 .602-.201.602-.603V65.46c0-.402-.301-.603-.602-.603Zm27.526 24.029a1.407 1.407 0 1 0-1.01-2.626 1.407 1.407 0 0 0 1.01 2.626Zm8.639-5.704a1.407 1.407 0 0 0-2.023-1.955 1.406 1.406 0 1 0 2.023 1.955Zm-38.031-8.64a1.406 1.406 0 1 0-.911-2.66 1.406 1.406 0 0 0 .911 2.66Zm5.733 8.211a1.407 1.407 0 1 0-1.951-2.028 1.407 1.407 0 0 0 1.951 2.028Zm8.42 4.706a1.406 1.406 0 1 0-2.623-1.015 1.406 1.406 0 0 0 2.623 1.015Zm.302-40.568a1.408 1.408 0 0 0-.886-2.671 1.407 1.407 0 0 0 .886 2.671Zm-8.019 4.721c.564-.534.59-1.424.057-1.989a1.406 1.406 0 1 0-.057 1.989Zm-5.292 7.598a1.306 1.306 0 1 0-2.427-.965 1.306 1.306 0 0 0 2.427.965Z"/>
</svg>
