<svg xmlns="http://www.w3.org/2000/svg" viewBox="0 0 2239 1093.2">
    <g fill="#e14406">
        <path d="M997.22 553.288c0 55.6-22.3 230.5-185.6 335.5-17.7-1.5-38.5 2.3-55.3 11-14.1 7.3-24 18.1-32.5 30.3-31.3 13.5-80.4 23-126.5 23-222.3 0-405.1-177.5-405.1-399.8 0-55.6 15.4-99.5 26.7-139.1 63.4-2.7 120.1-36.3 154.1-75 32.4-36.9 52.4-79 52-149.8 37-21.3 114.1-38.8 169.6-38.6 89.6.4 181.4 33.7 238.4 79.2 1.2 39.3 12.1 68.8 31 95 18.9 26.3 42.3 42.3 93.4 57.1 19.5 36.1 39.8 115.6 39.8 171.2z" />
        <path d="M1057.32 232.288c0 40.1-32.5 72.7-72.7 72.7-40.1 0-72.7-32.5-72.7-72.7s32.5-72.7 72.7-72.7 72.7 32.5 72.7 72.7z" fill-opacity=".99" />
        <path d="M858.02 982.988c0 30.7-24.9 55.5-55.5 55.5s-55.5-24.9-55.5-55.5c0-30.7 24.9-55.5 55.5-55.5s55.5 24.8 55.5 55.5zm-512.3-789.2c0 77.7-63 140.8-140.8 140.8s-140.8-63-140.8-140.8 63-140.8 140.8-140.8 140.8 63.1 140.8 140.8z" />
    </g>
    <path d="M604.42 529.188c23.5 0 40.3-4.8 50.4-14.3 10.3-9.5 15.4-25.2 15.4-47 0-21.6-5.1-37.1-15.4-46.4-10.1-9.3-26.9-14-50.4-14h-47.2v121.7h47.2m-47.2 84.5v179.5h-112.1v-474.3h171.2c57.3 0 99.2 10.5 125.8 31.5 26.8 21 40.2 54.1 40.2 99.4 0 31.3-7 57.1-21 77.2-13.8 20.1-34.7 34.9-62.6 44.5 15.3 3.8 29 12.5 41.1 26.1 12.2 13.3 24.6 33.7 37 61l60.9 134.7h-119.5l-53-117.9c-10.7-23.7-21.5-39.9-32.6-48.6-10.9-8.7-25.4-13-43.7-13l-31.7-.1" fill="#fff" />
    <path d="M1120.32 569.388c-16.4 0-29.2 7.7-38.2 23-9.1 15.4-13.6 37-13.6 64.8s4.5 49.3 13.6 64.7 21.8 23 38.2 23c16.5 0 29.3-7.7 38.4-23 9.1-15.4 13.6-36.9 13.6-64.7 0-27.9-4.5-49.5-13.6-64.8s-21.9-23-38.4-23m0-49.4c33.6 0 59.9 12.2 79 36.5 19 24.3 28.6 57.9 28.6 100.8 0 42.7-9.5 76.3-28.6 100.6-19 24.3-45.4 36.5-79 36.5-33.5 0-59.9-12.2-79-36.5-19-24.3-28.6-57.9-28.6-100.6 0-42.9 9.5-76.5 28.6-100.8s45.5-36.5 79-36.5m232 107.2c8.5 0 14.9-2.4 19.3-7.1s6.6-11.7 6.6-20.9c0-9.1-2.2-16-6.6-20.7-4.4-4.8-10.8-7.3-19.3-7.3h-29.8v56h29.8m1.8 115.6c10.8 0 19-2.9 24.4-8.7 5.5-5.8 8.3-14.5 8.3-26.2 0-11.5-2.7-20-8.1-25.7-5.4-5.8-13.6-8.7-24.5-8.7h-31.7v69.3h31.6m50.1-95.1c11.6 4.3 20.5 12.1 26.9 23.6 6.3 11.5 9.5 25.5 9.5 42.2 0 25.5-6.8 44.5-20.4 57s-34.4 18.8-62.2 18.8h-89.5v-264.5h81c29 0 50 5.6 63 16.7 13.1 11.1 19.6 28.9 19.6 53.3 0 12.9-2.4 23.9-7.1 32.9-4.8 9-11.7 15.6-20.8 20m82.8-122.9h145.5v51.5h-91.6v49.2h86.1v51.5h-86.1v60.6h94.7v51.5h-148.6v-264.3m272.7 117.2c11.3 0 19.4-2.7 24.2-8 4.9-5.3 7.4-14.1 7.4-26.2 0-12-2.5-20.7-7.4-25.9s-12.9-7.8-24.2-7.8h-22.7v67.8l22.7.1m-22.7 47.2v100.1h-53.9v-264.5h82.4c27.5 0 47.7 5.8 60.5 17.5 12.9 11.7 19.3 30.2 19.3 55.4 0 17.5-3.4 31.8-10.1 43-6.6 11.2-16.7 19.5-30.1 24.8 7.4 2.1 14 7 19.7 14.5 5.9 7.4 11.8 18.8 17.8 34l29.3 75.1h-57.4l-25.5-65.7c-5.1-13.2-10.4-22.3-15.7-27.1-5.2-4.8-12.2-7.3-21-7.3l-15.3.2m129-164.4h192.7v51.5h-69.3v212.9h-53.9v-212.9h-69.5v-51.5m320.6 44.2c0 7.7-1.7 14.8-5.1 21.1-3.3 6.3-7.5 11.6-12.6 15.9-5.1 4.2-10.4 8.1-15.8 11.8-5.4 3.5-10.6 7.5-15.6 11.8-5 4.2-8.5 8.5-10.6 13h59.1v24.6h-94.9c.7-12.9 3.2-23 7.7-30.5 4.6-7.6 12.8-15.6 24.6-23.8 15.4-10.8 25.1-18.7 29.3-23.8 4.2-5.3 6.3-11.7 6.3-19.5 0-7-1.8-12.4-5.3-16.3-3.4-4.1-8.2-6.1-14.4-6.1-6.3 0-11.2 2.2-14.8 6.5-3.4 4.3-5.1 10.4-5.1 18.1v4.5h-26.4c-.1-1.4-.2-3.1-.2-4.9 0-14.7 4-26.1 12-34.3 8.1-8.3 19.4-12.4 33.9-12.4 14.7 0 26.3 4 34.8 12 8.7 8 13.1 18.8 13.1 32.3z" fill="#242424" />
</svg>
