<svg xmlns="http://www.w3.org/2000/svg" viewBox="0 0 128 128">
  <path fill="currentColor" d="M66.3 28.1c-.8-1-2.1-1.4-3.3-.9l-48 17c-.7.2-1.2.7-1.6 1.3l-12 20c-.7 1.1-.6 2.5.2 3.4.7.7 1.5 1.1 2.4 1.1.3 0 .7-.1 1-.2l48-17c.7-.2 1.2-.7 1.6-1.3l12-20c.6-1 .5-2.4-.3-3.4z" />
  <path fill="#151717" d="M112 47L64 30 16 47v60l48 17 48-17z" />
  <path fill="#151717" d="M112 47L64 30 16 47v60l48 17 48-17zm0 0L64 30" />
  <path fill="currentColor" d="M64 127c-.3 0-.7-.1-1-.2l-48-17c-1.2-.4-2-1.6-2-2.8V47c0-1.3.8-2.4 2-2.8l48-17c1.6-.6 3.3.3 3.8 1.8.6 1.6-.3 3.3-1.8 3.8L19 49.1v55.8l46 16.3c1.6.6 2.4 2.3 1.8 3.8-.4 1.2-1.6 2-2.8 2z" />
  <path fill="#151717" d="M112 47L64 30m48 17L64 30m0 34L16 47m108 20L76 84 64 64l48-17z" />
  <path fill="currentColor" d="M126.6 65.5l-12-20-.1-.1c0-.1-.1-.1-.1-.2s-.1-.1-.1-.2v-.1l-.2-.2-.1-.1-.1-.1h-.1l-.1-.1c-.1-.1-.2-.1-.3-.1-.1 0-.1-.1-.2-.1l-48-17c-.2-.1-.4-.1-.6-.1h-.8c-.2 0-.4.1-.6.1l-48 17c-1.2.4-2 1.6-2 2.8v60c0 1.3.8 2.4 2 2.8l48 17c.1 0 .2.1.3.1H64.8c.1 0 .2-.1.3-.1l48-17c1.2-.4 2-1.6 2-2.8V73.4l10-3.5c.8-.3 1.5-1 1.8-1.8s.1-1.9-.3-2.6zM103 47L67 59.8V34.2L103 47zm-84 4.2l42 14.9v53.6l-42-14.9V51.2zm90 53.7l-42 14.9v-45l6.4 10.7C74 86.5 75 87 76 87c.3 0 .7-.1 1-.2l32-11.3v29.4zM77.3 80.4l-8.9-14.8 42.2-15 8.9 14.8-42.2 15z" />
</svg>
