<?xml version="1.0" encoding="UTF-8"?>
<svg version="1.1" viewBox="0 0 1024 1024" xmlns="http://www.w3.org/2000/svg">
<g>
    <circle cx="754.31" cy="947.99" r="55.541" fill="#e14306" fill-rule="evenodd" />
    <circle cx="936.48" cy="197.28" r="72.684" fill="#e14306" fill-rule="evenodd" />
    <circle cx="156.74" cy="158.87" r="140.76" fill="#e14306" fill-rule="evenodd" />
    <path d="m949.01 518.29c0 55.565-22.291 230.49-185.59 335.49-17.67-1.5456-38.506 2.2836-55.282 11.003-14.071 7.3134-24.02 18.081-32.454 30.332-31.303 13.521-80.389 22.986-126.48 22.986-222.26 0-405.07-177.55-405.07-399.81 0-55.565 15.365-99.452 26.702-139.06 63.359-2.7336 120.1-36.254 154.05-74.974 32.373-36.919 52.435-78.97 52.032-149.8 36.972-21.331 114.09-38.83 169.65-38.61 89.551 0.35401 181.44 33.659 238.43 79.158 1.201 39.337 12.119 68.781 30.964 94.978 18.903 26.279 42.278 42.268 93.41 57.146 19.302 36.11 39.63 115.59 39.63 171.16z" fill="#e14406" fill-rule="evenodd" />
    <path d="m556.21 494.25c23.491 2.7e-4 40.284-4.7655 50.38-14.297 10.289-9.5313 15.434-25.206 15.434-47.023-2.9e-4 -21.605-5.145-37.067-15.434-46.387-10.096-9.3194-26.889-13.979-50.38-13.98h-47.176v121.69h47.176m-47.176 84.514v179.51h-112.12v-474.36h171.23c57.271 4.5e-4 99.206 10.485 125.8 31.454 26.791 20.97 40.187 54.119 40.187 99.446-3.7e-4 31.349-6.9895 57.084-20.967 77.206-13.784 20.123-34.655 34.949-62.611 44.481 15.337 3.8129 29.024 12.497 41.061 26.053 12.231 13.344 24.559 33.679 36.984 61.002l60.863 134.71h-119.4l-53.001-117.87c-10.678-23.723-21.55-39.927-32.616-48.611-10.872-8.6842-25.433-13.026-43.682-13.027h-31.742" fill="#fff" />
</g>
</svg>
