<svg viewBox="0 0 121 137" fill="none" xmlns="http://www.w3.org/2000/svg">
    <path fill="rgba(23, 23, 23, 0.5)" d="M60.573 137C93.6468 137 120.458 110.087 120.458 76.8879C120.458 43.6888 93.6468 16.7756 60.573 16.7756C27.4991 16.7756 0.6875 43.6888 0.6875 76.8879C0.6875 110.087 27.4991 137 60.573 137Z" />
    <path fill="currentColor" d="M21.8068 121.512C21.0004 121.512 20.2837 120.88 20.1941 120.068C20.1045 119.165 20.7316 118.353 21.6276 118.263C22.5236 118.173 23.4196 118.082 24.3155 117.992C25.2115 117.902 26.0179 118.534 26.1075 119.436C26.1971 120.338 25.5699 121.151 24.6739 121.241C23.7779 121.331 22.7924 121.421 21.8964 121.512C21.8964 121.512 21.8964 121.512 21.8068 121.512Z" />
    <path fill="currentColor" d="M34.4393 119.887C33.6329 119.887 32.9161 119.346 32.8265 118.534C32.6474 117.631 33.2745 116.819 34.1705 116.639C35.9624 116.368 37.6648 116.007 39.4567 115.646C40.3527 115.465 41.1591 116.007 41.3383 116.909C41.5175 117.812 40.9799 118.624 40.0839 118.804C38.292 119.165 36.5 119.526 34.6185 119.797C34.5289 119.887 34.5289 119.887 34.4393 119.887ZM75.206 117.09H75.1164C73.2348 116.909 71.3533 116.639 69.4718 116.278C68.5758 116.097 68.0382 115.195 68.2174 114.292C68.3966 113.39 69.2926 112.848 70.1885 113.029C71.8909 113.39 73.5932 113.661 75.2956 113.841C76.1915 113.931 76.9083 114.653 76.8187 115.556C76.8187 116.458 76.1019 117.09 75.206 117.09ZM49.402 116.458C48.6852 116.458 48.058 116.007 47.8789 115.285C47.6101 114.383 48.058 113.48 48.954 113.209C50.6564 112.668 52.3587 112.036 53.9715 111.314C54.7778 110.953 55.7634 111.314 56.1218 112.217C56.4802 113.029 56.1218 114.022 55.2258 114.383C53.6131 115.104 51.8211 115.736 49.9396 116.368C49.6708 116.458 49.4916 116.458 49.402 116.458ZM85.0616 116.458C84.3449 116.458 83.6281 115.917 83.4489 115.195C83.2697 114.292 83.8073 113.39 84.7033 113.209C86.4056 112.848 88.0183 112.307 89.6311 111.675C90.4375 111.314 91.423 111.766 91.7814 112.578C92.1398 113.39 91.6918 114.383 90.8855 114.743C89.0935 115.465 87.3016 116.007 85.42 116.458C85.3304 116.458 85.2408 116.458 85.0616 116.458ZM60.512 112.939C60.2433 112.939 59.9745 112.848 59.7953 112.758C58.0929 111.946 56.4802 110.953 54.957 109.87C54.2402 109.329 54.0611 108.336 54.509 107.614C55.0466 106.892 56.0322 106.712 56.749 107.163C58.1825 108.156 59.7057 109.058 61.2288 109.87C62.0352 110.322 62.3936 111.224 61.9456 112.036C61.7664 112.668 61.1392 112.939 60.512 112.939ZM98.8596 109.87C98.4116 109.87 97.874 109.69 97.6052 109.239C97.0676 108.517 97.1572 107.524 97.874 106.892C99.218 105.81 100.562 104.636 101.727 103.373C102.354 102.741 103.339 102.651 104.056 103.283C104.683 103.914 104.773 104.907 104.146 105.629C102.891 106.983 101.458 108.336 99.9348 109.509C99.5764 109.78 99.218 109.87 98.8596 109.87ZM63.2 109.78C62.6624 109.78 62.2144 109.509 61.856 109.058C61.3184 108.336 61.4976 107.253 62.2144 106.802C63.6479 105.719 64.9919 104.636 66.1567 103.463C66.7838 102.832 67.859 102.832 68.4862 103.463C69.1134 104.095 69.1134 105.178 68.4862 105.81C67.1422 107.073 65.7087 108.336 64.0959 109.509C63.8271 109.69 63.4687 109.78 63.2 109.78ZM48.4164 103.644C47.9685 103.644 47.5205 103.463 47.1621 103.102C45.9077 101.658 44.743 100.124 43.6678 98.5902C43.1302 97.8683 43.399 96.7854 44.1158 96.3342C44.8326 95.883 45.9077 96.0634 46.3557 96.7854C47.3413 98.2293 48.4164 99.5829 49.5812 100.937C50.2084 101.568 50.1188 102.651 49.4916 103.283C49.2228 103.463 48.7748 103.644 48.4164 103.644ZM73.1452 98.2292C72.8764 98.2292 72.6972 98.139 72.4285 98.0488C71.6221 97.6878 71.2637 96.6951 71.7117 95.883C72.4285 94.3489 73.0556 92.7245 73.5932 91.0099C73.862 90.1075 74.758 89.6563 75.6539 89.927C76.5499 90.1977 76.9979 91.1002 76.7291 92.0026C76.1915 93.8976 75.4748 95.7025 74.6684 97.4171C74.31 97.9585 73.7724 98.2292 73.1452 98.2292ZM108.626 98.0488C108.357 98.0488 108.088 97.9585 107.909 97.8683C107.103 97.4171 106.834 96.4244 107.192 95.6122C107.998 94.0781 108.715 92.4538 109.253 90.8294C109.522 90.0173 110.507 89.566 111.314 89.8368C112.12 90.1075 112.568 91.1002 112.299 91.9123C111.672 93.7172 110.866 95.522 110.059 97.1463C109.79 97.778 109.253 98.0488 108.626 98.0488ZM40.8903 90.288C40.1735 90.288 39.5463 89.8368 39.3671 89.1148C38.8295 87.2198 38.4712 85.3247 38.292 83.4296C38.2024 82.5272 38.8295 81.715 39.7255 81.6248C40.6215 81.5345 41.4279 82.1662 41.5175 83.0686C41.6967 84.7832 42.055 86.4978 42.503 88.1222C42.7718 89.0246 42.2342 89.927 41.4279 90.1977C41.1591 90.288 41.0695 90.288 40.8903 90.288ZM113.016 83.3394C112.926 83.3394 112.926 83.3394 112.837 83.3394C111.941 83.2491 111.314 82.437 111.403 81.5345C111.582 79.8199 111.672 78.0151 111.672 76.3005C111.672 75.3981 112.389 74.6762 113.285 74.6762C114.181 74.6762 114.897 75.3981 114.897 76.3005C114.897 78.1956 114.808 80.0907 114.629 81.9857C114.539 82.7077 113.822 83.3394 113.016 83.3394ZM76.5499 83.1589C75.6539 83.1589 74.9372 82.5272 74.9372 81.6248V81.354C74.9372 79.6395 74.758 78.0151 74.4892 76.481C74.31 75.5786 74.8476 74.7664 75.7435 74.5859C76.6395 74.4054 77.4459 74.9469 77.6251 75.8493C77.9835 77.5639 78.1627 79.459 78.1627 81.4443C78.1627 82.3467 77.4459 83.1589 76.5499 83.1589ZM41.1591 75.1274C40.9799 75.1274 40.7111 75.0371 40.5319 74.9469C39.7255 74.5859 39.3671 73.5933 39.7255 72.7811C40.5319 70.9763 41.6071 69.2617 42.951 67.8178C43.5782 67.1861 44.5638 67.0959 45.2805 67.7276C45.9077 68.3592 45.9973 69.3519 45.3701 70.0738C44.2054 71.3372 43.3094 72.6908 42.6822 74.225C42.4134 74.7664 41.7863 75.1274 41.1591 75.1274ZM71.7117 68.9909C71.2637 68.9909 70.8157 68.8105 70.5469 68.4495C69.4718 67.2763 68.1278 66.2837 66.6046 65.5618C65.7983 65.2008 65.4399 64.2081 65.8879 63.396C66.2463 62.5838 67.2318 62.2228 68.0382 62.674C69.8301 63.5764 71.4429 64.7496 72.8764 66.2837C73.5036 66.9154 73.5036 67.9983 72.7868 68.63C72.5181 68.9007 72.0701 68.9909 71.7117 68.9909ZM112.389 67.908C111.582 67.908 110.955 67.3666 110.776 66.5544C110.418 64.8398 110.059 63.035 109.522 61.4106C109.253 60.5082 109.79 59.6058 110.597 59.3351C111.493 59.0644 112.389 59.6058 112.658 60.418C113.195 62.2228 113.643 64.0276 114.001 65.9227C114.181 66.8251 113.554 67.6373 112.658 67.8178C112.568 67.908 112.478 67.908 112.389 67.908ZM52.3587 65.2008C51.6419 65.2008 51.0148 64.7496 50.8356 64.1179C50.5668 63.3057 51.0148 62.3131 51.8211 62.0423C53.7027 61.4106 55.5842 60.9594 57.5553 60.7789C58.4513 60.6887 59.2577 61.4106 59.3473 62.3131C59.4369 63.2155 58.7201 64.0276 57.8241 64.1179C56.1218 64.2984 54.509 64.5691 52.8963 65.2008C52.7171 65.1105 52.5379 65.2008 52.3587 65.2008ZM107.551 53.2889C106.923 53.2889 106.386 52.9279 106.117 52.3865C105.311 50.7621 104.415 49.228 103.429 47.7841C102.981 46.972 103.16 45.9793 103.967 45.5281C104.773 45.0769 105.759 45.2574 106.207 46.0695C107.192 47.6037 108.088 49.3182 108.984 51.0328C109.342 51.845 109.074 52.8377 108.267 53.1986C107.998 53.2889 107.73 53.2889 107.551 53.2889Z" />
    <path fill="currentColor" d="M98.5906 40.4747C98.1426 40.4747 97.7842 40.2942 97.4259 40.0235C96.7987 39.3918 96.1715 38.7601 95.5443 38.2186C94.8275 37.5869 94.8275 36.5943 95.3651 35.8723C95.9923 35.1504 96.9779 35.1504 97.6947 35.6919C98.4114 36.3236 99.1282 36.9552 99.7554 37.6772C100.383 38.3089 100.383 39.3918 99.7554 40.0235C99.397 40.2942 98.949 40.4747 98.5906 40.4747Z" />
    <path fill="currentColor" d="M80.1334 31.4504C74.7576 35.5113 72.8761 38.4893 61.8556 27.2091C59.7053 25.0433 60.2429 21.7043 67.4107 20.8019C73.6824 19.9897 78.3415 20.8019 83.0901 22.6067C83.0901 22.6067 83.0901 22.6067 83.1797 22.5165C80.7606 16.1996 80.3126 9.70218 82.1942 3.11453C82.9109 0.768248 85.3301 -1.03659 87.122 0.678006C98.8592 11.7777 96.0817 14.485 91.6915 19.719C92.229 19.358 92.677 19.0873 93.125 18.8166C95.8129 17.1922 101.368 16.6508 102.085 24.4116C102.174 25.675 102.174 27.0286 101.637 28.292C100.562 30.7285 97.8737 30.8187 95.5441 30.7285C93.2146 30.6382 91.4227 30.0066 89.4515 29.1041C89.6307 29.4651 89.6307 29.6456 89.7203 29.8261C90.9747 32.804 92.0498 38.399 89.6307 40.6551C88.2868 41.8282 86.4052 41.8282 84.7029 41.738C83.2693 41.6477 81.8358 41.377 80.5814 40.6551C78.6999 39.5722 77.9831 37.6771 78.2519 35.6015C78.6103 33.7065 79.5063 32.5333 80.1334 31.4504Z" />
</svg>
