<svg viewBox="23 5 126 120" fill="none" xmlns="http://www.w3.org/2000/svg">
    <path fill="rgba(23, 23, 23, 0.5)" d="M83.1362 125C116.249 125 143.094 98.1552 143.094 64.9243C143.094 31.6935 116.13 4.84863 83.1362 4.84863C50.0236 4.84863 23.1787 31.6935 23.1787 64.9243C23.1787 98.1552 50.0236 125 83.1362 125Z" />
    <path fill="rgba(23, 23, 23, 0.5)" d="M139.191 25.5439C141.869 25.5439 144.04 23.3731 144.04 20.6953C144.04 18.0175 141.869 15.8467 139.191 15.8467C136.514 15.8467 134.343 18.0175 134.343 20.6953C134.343 23.3731 136.514 25.5439 139.191 25.5439Z" />
    <path fill="rgba(23, 23, 23, 0.5)" d="M26.3718 25.4257C28.2006 25.4257 29.6831 23.9432 29.6831 22.1145C29.6831 20.2857 28.2006 18.8032 26.3718 18.8032C24.543 18.8032 23.0605 20.2857 23.0605 22.1145C23.0605 23.9432 24.543 25.4257 26.3718 25.4257Z" />
    <path fill="#2E333D" d="M123.935 34.8865L124.881 111.045C124.881 113.647 122.753 115.658 120.151 115.658H45.8842C43.2825 115.658 41.1538 113.529 41.1538 111.045V13.1268C41.1538 10.5251 43.2825 8.51465 45.8842 8.51465H99.6921L123.935 34.8865Z" />
    <path fill="#3E4450" d="M77.3417 100.402H62.7958C62.2045 100.402 61.7314 99.8107 61.7314 99.1012C61.7314 98.3916 62.2045 97.8003 62.7958 97.8003H77.3417C77.933 97.8003 78.406 98.3916 78.406 99.1012C78.406 99.929 77.933 100.402 77.3417 100.402Z" />
    <path fill="#3E4450" d="M69.0634 100.402H53.2167C52.6254 100.402 52.1523 99.8107 52.1523 99.1012C52.1523 98.3916 52.6254 97.8003 53.2167 97.8003H69.0634C69.6547 97.8003 70.1278 98.3916 70.1278 99.1012C70.1278 99.929 69.6547 100.402 69.0634 100.402Z" />
    <path fill="#3E4450" d="M89.2858 24.4795H53.6897C52.8619 24.4795 52.1523 23.77 52.1523 22.9422C52.1523 22.1143 52.8619 21.4048 53.6897 21.4048H89.2858C90.1136 21.4048 90.8231 22.1143 90.8231 22.9422C90.8231 23.77 90.1136 24.4795 89.2858 24.4795Z" />
    <path fill="#3E4450" d="M67.4078 32.9942H53.6897C52.8619 32.9942 52.1523 32.2846 52.1523 31.4568C52.1523 30.629 52.8619 29.9194 53.6897 29.9194H67.2895C68.1173 29.9194 68.8269 30.629 68.8269 31.4568C68.8269 32.2846 68.1173 32.9942 67.4078 32.9942Z" />
    <path fill="#1F2229" d="M98.6924 9.51465V29.7666C98.6924 32.611 101.294 34.8865 104.251 34.8865H122.936" />
    <path fill="#3E4450" d="M82.2463 79.9375H71.9697H67.4507H53.7834C53.2323 79.9375 52.6812 80.4902 52.6812 81.2639C52.6812 81.9271 53.122 82.5903 53.7834 82.5903H67.4507H71.9697H82.2463C82.7974 82.5903 83.3485 82.0376 83.3485 81.2639C83.2383 80.4902 82.7974 79.9375 82.2463 79.9375Z" />
    <path fill="#3E4450" d="M80.9543 70.3208H65.744H60.5636H53.7834C53.2323 70.3208 52.6812 70.8735 52.6812 71.6472C52.6812 72.3104 53.122 72.9736 53.7834 72.9736H60.5636H65.744H80.9543C81.5054 72.9736 82.0565 72.4209 82.0565 71.6472C81.9463 70.8735 81.5054 70.3208 80.9543 70.3208Z" />
    <path fill="#3E4450" d="M88.3755 60.5938H84.4075H80.4396H53.7834C53.2323 60.5938 52.6812 61.1464 52.6812 61.9202C52.6812 62.5834 53.122 63.2466 53.7834 63.2466H80.4396H84.8484H88.2652C88.8163 63.2466 89.3674 62.6939 89.3674 61.9202C89.4777 61.257 88.9266 60.5938 88.3755 60.5938Z" />
    <path fill="#3E4450" d="M113.526 81.5991H106.304H98.2141H84.3833C83.3967 81.5991 82.4102 82.5846 82.4102 83.9643C82.4102 85.1469 83.1994 86.3295 84.3833 86.3295H98.2141H106.304H113.526C114.512 86.3295 115.499 85.344 115.499 83.9643C115.302 82.5846 114.512 81.5991 113.526 81.5991Z" />
    <path fill="#3E4450" d="M113.522 69.7729H95.698H86.4077H83.2047C82.2164 69.7729 81.228 70.7584 81.228 72.1381C81.228 73.3207 82.0187 74.5033 83.2047 74.5033H86.4077H95.698H113.522C114.51 74.5033 115.499 73.5178 115.499 72.1381C115.301 70.7584 114.51 69.7729 113.522 69.7729Z" />
    <path fill="#3E4450" d="M113.701 57.9473H106.612H99.5233H89.1058C88.1213 57.9473 87.1367 58.9328 87.1367 60.3124C87.1367 61.495 87.9244 62.6776 89.1058 62.6776H99.5233H107.4H113.504C114.489 62.6776 115.473 61.6921 115.473 60.3124C115.67 59.1299 114.686 57.9473 113.701 57.9473Z" />
    <path fill="#3E4450" d="M113.633 50.9775H100.737H97.5408H53.7834C53.2323 50.9775 52.6812 51.5302 52.6812 52.3039C52.6812 52.9671 53.122 53.6303 53.7834 53.6303H97.5408H100.737H113.523C114.294 53.6303 114.735 53.0777 114.735 52.3039C114.735 51.6407 114.294 50.9775 113.633 50.9775Z" />
    <path fill="currentColor" d="M147.054 110.224L134.708 97.6654C133.441 96.3773 131.621 95.8943 129.959 96.2163L126.952 93.1571C135.499 82.3695 134.787 66.5101 124.973 56.5275C116.742 48.1551 104.475 46.3035 94.5027 51.0532C91.7327 52.3413 89.121 54.1929 86.7467 56.5275C83.8184 59.4257 81.7606 62.8874 80.4943 66.5906C79.8612 68.3617 79.3863 70.1328 79.1489 71.9844C77.9618 80.2764 80.4943 89.0514 86.7467 95.4113C86.905 95.5723 86.9841 95.6528 87.1424 95.8138C92.3659 100.966 99.0931 103.462 105.899 103.462C111.914 103.462 117.929 101.449 122.836 97.4239L125.844 100.483C125.527 102.174 126.002 104.025 127.268 105.313L139.535 117.872C141.593 119.965 144.917 119.965 146.975 117.872C149.112 115.779 149.112 112.317 147.054 110.224ZM121.095 91.4665C120.145 92.4326 119.116 93.2376 118.087 94.0427C117.059 94.7672 116.03 95.3307 115.001 95.8138C109.303 98.5509 102.575 98.5509 96.877 95.8138C94.661 94.7672 92.6033 93.3181 90.783 91.4665C85.5595 86.1532 83.5809 78.8273 84.8472 71.9844C85.1638 70.1328 85.7178 68.2812 86.5884 66.5906C87.6173 64.417 89.0418 62.3239 90.783 60.5528C91.9701 59.3452 93.2364 58.2986 94.5819 57.4936C98.0642 55.2395 102.021 54.1929 105.979 54.1929C111.519 54.1929 116.979 56.286 121.174 60.5528C129.484 69.0863 129.484 82.933 121.095 91.4665Z" />
</svg>
