<svg xmlns="http://www.w3.org/2000/svg" fill="none" viewBox="0 0 126 126">
    <path fill="#2a2e37" d="M125.042 63.427a62.585 62.585 0 0 1-3.227 19.792c-8.223 24.479-31.436 42.083-58.604 42.083-27.272 0-50.484-17.708-58.707-42.187A60.687 60.687 0 0 1 2.005 72.49a66.295 66.295 0 0 1-.624-9.063c0-4.479.52-8.854 1.353-13.02C8.667 22.49 33.545 1.551 63.211 1.551c19.778 0 37.369 9.271 48.611 23.646a58.074 58.074 0 0 1 2.29 3.02c2.394 3.334 4.372 6.98 6.038 10.834 3.122 7.5 4.892 15.73 4.892 24.375Z"/>
    <path fill="#8e96ab" d="M121.815 83.219c-8.223 24.479-31.436 42.083-58.604 42.083a61.683 61.683 0 0 1-23.629-4.687c-1.873-.729-3.643-1.667-5.412-2.604-13.845-7.188-24.566-19.688-29.667-34.792L29.798 58.01l9.264-9.271c2.498-2.5 6.662-2.5 9.16 0l4.58 4.583 23.317 23.333 14.989-15c2.498-2.5 6.662-2.5 9.16 0l13.011 13.021 8.536 8.542Z"/>
    <path fill="#5c6479" d="M121.815 83.219c-8.223 24.479-31.436 42.083-58.603 42.083a61.683 61.683 0 0 1-23.63-4.687c-1.873-.729-3.642-1.667-5.412-2.604l41.845-41.563 15.093-14.791c2.498-2.5 6.662-2.5 9.16 0l21.547 21.562Z"/>
    <path fill="#c6cddf" d="M120.046 39.052H80.491c.208-5.625 4.788-10.104 10.409-10.104h.833c1.457-4.687 5.829-8.229 11.033-8.229 4.893 0 9.16 3.125 10.826 7.396h.52c2.29 3.542 4.372 7.187 5.934 10.937ZM36.772 72.594H2.005a66.296 66.296 0 0 1-.624-9.063c0-4.479.52-8.854 1.353-13.02.625-.209 1.25-.209 1.874-.209 6.037 0 11.137 3.75 13.115 9.063 4.684.208 8.64 3.437 9.889 7.812.625-.104 1.145-.208 1.874-.208 3.435-.104 6.453 2.292 7.286 5.625ZM48.223 48.74l4.58 4.583-6.662 6.667-5.1-5.104-6.975 6.979s-2.186-1.98-4.268-3.959l9.265-9.27c2.498-2.5 6.557-2.5 9.16.104Zm65.057 25.937-6.974 6.98-5.205-5.209-7.494 7.5L81.22 71.552l9.888-9.896c2.499-2.5 6.662-2.5 9.161 0l13.011 13.021Z"/>
    <path fill="#474e61" d="M19.285 37.802c10.348 0 18.736-8.394 18.736-18.75 0-10.355-8.388-18.75-18.736-18.75S.548 8.697.548 19.052c0 10.356 8.389 18.75 18.737 18.75Z"/>
</svg>
