<svg xml:space="preserve" xmlns="http://www.w3.org/2000/svg" viewBox="0 0 1000 220">
    <title>Loxya</title>
    <path d="M561.26 5.14a15.58 15.58 0 0 0-11.91 4.71L490.68 70.1l-59.93-59.93a15.4 15.4 0 0 0-12.2-4.68 16.2 16.2 0 0 0-10.3 4.76l-18.02 18.02c-4.27 4.26-5.01 8.82-4.88 11.9a15.58 15.58 0 0 0 4.71 10.7l60.24 58.66-59.92 59.93a15.4 15.4 0 0 0-4.69 12.2 16.2 16.2 0 0 0 4.77 10.3l18.02 18.02c4.26 4.26 8.82 5 11.9 4.88a15.58 15.58 0 0 0 10.7-4.71l58.66-60.24 59.93 59.92a15.4 15.4 0 0 0 12.2 4.69c3.93-.32 7.5-1.96 10.3-4.77l18.02-18.02c4.27-4.26 5.01-8.82 4.88-11.9a15.58 15.58 0 0 0-4.7-10.7l-60.25-58.66 59.92-59.93a15.4 15.4 0 0 0 4.7-12.19 16.2 16.2 0 0 0-4.77-10.3l-18.03-18.03c-3.73-3.73-7.68-4.76-10.68-4.88zm315.08 127.17 22.17-53.98 22.17 53.98Zm123.24 66.23-.03-.14a10.27 10.27 0 0 0-.7-3.02L930.55 24.5a4.03 4.03 0 0 0-.08-.2l-4.27-10.08a8.62 8.62 0 0 0-.5-1.01 26.38 26.38 0 0 0-3.23-4.47c-2.02-2.3-5.78-5.06-12.2-5.06h-20.83c-5.97 0-9.81 2.58-11.99 4.76a17.93 17.93 0 0 0-4.55 6.98l-69.57 173.22-.14.36c-.41 1.15-.88 2.42-1.41 3.8a51.66 51.66 0 0 0-1.81 5.76 14.28 14.28 0 0 0-.49 3.87c0 4.81 2.34 9 6.43 11.5a17.59 17.59 0 0 0 9.28 2.4h25.87c7.52 0 13.62-4.28 16.36-11.5 1.45-3.92 3.22-8.52 5.28-13.67a903.9 903.9 0 0 0 4.1-10.54h65.58a542.4 542.4 0 0 0 2.36 6.05l7.23 18.34.1.24a18.63 18.63 0 0 0 5.9 7.86c2.85 2.13 6.4 3.21 10.55 3.21h25.49c11.02 0 15.96-7.1 15.96-14.15 0-1.12-.13-2.3-.4-3.63M804.76 16.15c0-7.11-5.47-12.47-12.73-12.47h-35.7c-.72 0-1.44.08-2.14.22-1.9.4-3.47.89-4.83 1.48-3.88 1.7-6.03 5.15-7.47 8l-30.2 57.1-30.02-56.75a51.5 51.5 0 0 0-1.9-3.28 14.53 14.53 0 0 0-4.1-4.27 13.07 13.07 0 0 0-5.76-2.11l-.34-.08a10.3 10.3 0 0 0-2.5-.31h-35.45c-7.26 0-12.73 5.25-12.73 12.21 0 1.52.27 3.1.86 4.97a15.27 15.27 0 0 0 2.39 4.69l60.4 103.84v70.58c0 9.78 6.3 16.35 15.7 16.35h26.4c9.62 0 16.09-6.57 16.09-16.35V129.2a2889.65 2889.65 0 0 0 29.95-51.25A4247.9 4247.9 0 0 1 801.3 25.2c1.62-2.1 3.46-5.17 3.46-9.05m-498.28 93.72a53.3 53.3 0 0 1-3.93 20.51 51.55 51.55 0 0 1-10.84 16.52 52.17 52.17 0 0 1-16.28 11.13 49.41 49.41 0 0 1-20 4.05 49.67 49.67 0 0 1-20.11-4.05 51.34 51.34 0 0 1-16.2-11.1 52 52 0 0 1-10.8-16.55 53.2 53.2 0 0 1-3.93-20.5 52.91 52.91 0 0 1 14.76-37.03A50.86 50.86 0 0 1 235.3 61.7a49.72 49.72 0 0 1 20.13-4.05 49.4 49.4 0 0 1 19.99 4.05 51.7 51.7 0 0 1 16.25 11.16 52.33 52.33 0 0 1 10.86 16.62 52.92 52.92 0 0 1 3.94 20.38m43.28-54.84a108.88 108.88 0 0 0-39.22-39.22 112.12 112.12 0 0 0-26-10.97A106.8 106.8 0 0 0 255.57.9a107.3 107.3 0 0 0-29.11 3.94 112.12 112.12 0 0 0-25.99 10.97 107.2 107.2 0 0 0-22.1 17.1 111.76 111.76 0 0 0-17.03 22.08 108.32 108.32 0 0 0-14.87 55.14 108.85 108.85 0 0 0 14.8 55.05 108.95 108.95 0 0 0 16.99 22 108.46 108.46 0 0 0 77.19 31.92 108.8 108.8 0 0 0 55.1-14.78 109.9 109.9 0 0 0 22.12-16.98c6.65-6.6 12.4-14.04 17.1-22.1a112.47 112.47 0 0 0 10.97-25.92 106.58 106.58 0 0 0 3.94-29.06c0-10.03-1.32-19.84-3.94-29.17a111.93 111.93 0 0 0-10.97-26.06m-221.11 105.3H57.95V19.64c0-4.8-1.9-9.07-5.34-12.02a16.32 16.32 0 0 0-10.73-3.94H16.22c-6.07 0-9.84 2.72-11.94 5A15.93 15.93 0 0 0 .02 19.64v180.72c0 9.4 6.56 15.96 15.94 15.96h112.7c4.64 0 8.84-1.84 11.81-5.2a16.17 16.17 0 0 0 4.15-10.9v-23.67a15.9 15.9 0 0 0-15.96-16.22" fill="currentColor" />
</svg>
