<svg xmlns="http://www.w3.org/2000/svg" viewBox="37 26 76 37">
    <path fill="#fff" d="M56.76 63.19c-4 .3-8.62.22-12.2-1.77a14.28 14.28 0 01-6.46-7.24 18.43 18.43 0 01-1-6.19c0-8.16 3.63-14.46 9.07-18.09a22.65 22.65 0 0113.18-3.79 18.55 18.55 0 017.9 1.49l-2.15 6.26a15.68 15.68 0 00-6.51-1.17 12.84 12.84 0 00-8.22 2.78 14.92 14.92 0 00-5 11.63c0 5.76 3.25 9.6 9.55 9.6a36.43 36.43 0 005-.27l-3.24 6.76M80.41 47.19l-.61-6.84c-.16-2-.32-4.85-.48-7h-.16c-.91 2.19-1.92 5-2.88 7l-3.08 6.77-3 7.53-3.9 8.65H58l17.55-36h9.87l4.16 36h-8.02l-.69-8.58-.46-7.52M89.76 56.22a24.33 24.33 0 008.15 1.17c2.93 0 4.7-1.51 4.7-4.29 0-2.08-1.55-3.36-4.86-5.12-3.79-2-7.42-4.91-7.42-9.55 0-7.26 6.3-11.69 14.14-11.69a17.68 17.68 0 018.43 1.76l-2.4 6.4a14.15 14.15 0 00-6.67-1.55c-3.57 0-5.44 1.76-5.44 3.73 0 2.13 2.19 3.41 5.23 5.12 4.38 2.29 7.1 5.23 7.1 9.55 0 8-6.63 12.54-14.57 12.11a51.65 51.65 0 01-5.58-.59l-.82-7.07" />
    <path fill="#74c163" d="M65.71 54.73a9.33 9.33 0 013-.07 8.79 8.79 0 013.8 1.4 13.76 13.76 0 0111.31-5.63 13.92 13.92 0 0110.84 5l.23-.17c-2.89-3.9-8.43-6.53-14.78-6.53-6.06 0-11.37 2.4-14.36 6" />
</svg>
